<svg width="27" height="24" viewBox="0 0 27 24" fill="none" xmlns="http://www.w3.org/2000/svg">
<rect y="7" width="21" height="11" rx="5.5" fill="#3ABB6A" fill-opacity="0.5"/>
<path d="M20 6C20 4.11438 20 3.17157 19.4142 2.58579C18.8284 2 17.8856 2 16 2H14C12.1144 2 11.1716 2 10.5858 2.58579C10 3.17157 10 4.11438 10 6" stroke="#1C274C" stroke-width="1.5"/>
<path d="M14.1459 11.0225C14.5259 10.3408 14.7159 10 15 10C15.2841 10 15.4741 10.3408 15.8541 11.0225L15.9524 11.1989C16.0603 11.3926 16.1143 11.4894 16.1985 11.5533C16.2827 11.6172 16.3875 11.641 16.5972 11.6884L16.7881 11.7316C17.526 11.8986 17.895 11.982 17.9828 12.2643C18.0706 12.5466 17.819 12.8407 17.316 13.429L17.1858 13.5812C17.0429 13.7483 16.9714 13.8319 16.9392 13.9353C16.9071 14.0387 16.9179 14.1502 16.9395 14.3733L16.9592 14.5763C17.0352 15.3612 17.0733 15.7536 16.8435 15.9281C16.6136 16.1025 16.2682 15.9435 15.5773 15.6254L15.3986 15.5431C15.2022 15.4527 15.1041 15.4075 15 15.4075C14.8959 15.4075 14.7978 15.4527 14.6014 15.5431L14.4227 15.6254C13.7318 15.9435 13.3864 16.1025 13.1565 15.9281C12.9267 15.7536 12.9648 15.3612 13.0408 14.5763L13.0605 14.3733C13.0821 14.1502 13.0929 14.0387 13.0608 13.9353C13.0286 13.8319 12.9571 13.7483 12.8142 13.5812L12.684 13.429C12.181 12.8407 11.9294 12.5466 12.0172 12.2643C12.105 11.982 12.474 11.8986 13.2119 11.7316L13.4028 11.6884C13.6125 11.641 13.7173 11.6172 13.8015 11.5533C13.8857 11.4894 13.9397 11.3926 14.0476 11.1989L14.1459 11.0225Z" stroke="#1C274C" stroke-width="1.5"/>
<path d="M17 6H13C10.1716 6 8.75736 6 7.87868 6.87868C7 7.75736 7 9.17157 7 12V13.0557C7 15.4614 7 16.6642 7.5974 17.6308C8.19479 18.5974 9.27063 19.1353 11.4223 20.2111C13.1779 21.089 14.0557 21.5279 15 21.5279C15.9443 21.5279 16.8221 21.089 18.5777 20.2111C20.7294 19.1353 21.8052 18.5974 22.4026 17.6308C23 16.6642 23 15.4614 23 13.0557V12C23 9.17157 23 7.75736 22.1213 6.87868C21.2426 6 19.8284 6 17 6Z" stroke="#1C274C" stroke-width="1.5"/>
</svg>
