<svg width="24" height="24" viewBox="0 0 24 24" fill="none" xmlns="http://www.w3.org/2000/svg">
<rect x="2" y="9" width="21" height="11" rx="5.5" fill="#3ABB6A" fill-opacity="0.5"/>
<path fill-rule="evenodd" clip-rule="evenodd" d="M10.7226 3.20092C10.8335 2.80182 10.5998 2.38841 10.2007 2.27755C9.80164 2.16669 9.38823 2.40036 9.27737 2.79946L7.76333 8.25H4C3.58579 8.25 3.25 8.58579 3.25 9C3.25 9.41421 3.58579 9.75 4 9.75H7.34666L5.81888 15.25H2C1.58579 15.25 1.25 15.5858 1.25 16C1.25 16.4142 1.58579 16.75 2 16.75H5.40222L4.27737 20.7995C4.16651 21.1986 4.40017 21.612 4.79927 21.7228C5.19838 21.8337 5.61178 21.6 5.72265 21.2009L6.95901 16.75H14.4022L13.2774 20.7995C13.1665 21.1986 13.4002 21.612 13.7993 21.7228C14.1984 21.8337 14.6118 21.6 14.7226 21.2009L15.959 16.75H20C20.4142 16.75 20.75 16.4142 20.75 16C20.75 15.5858 20.4142 15.25 20 15.25H16.3757L17.9035 9.75H22C22.4142 9.75 22.75 9.41421 22.75 9C22.75 8.58579 22.4142 8.25 22 8.25H18.3201L19.7226 3.20092C19.8335 2.80182 19.5998 2.38841 19.2007 2.27755C18.8016 2.16669 18.3882 2.40036 18.2774 2.79946L16.7633 8.25H9.32012L10.7226 3.20092ZM14.8189 15.25L16.3467 9.75H8.90346L7.37568 15.25H14.8189Z" fill="#1C274C"/>
</svg>
