<svg width="26" height="24" viewBox="0 0 26 24" fill="none" xmlns="http://www.w3.org/2000/svg">
<rect y="6" width="26" height="12" rx="6" fill="#3ABB6A" fill-opacity="0.5"/>
<path d="M11 22C15.4183 22 19 18.4183 19 14C19 9.58172 15.4183 6 11 6C6.58172 6 3 9.58172 3 14C3 15.2355 3.28008 16.4056 3.7802 17.4502C3.95209 17.8093 4.01245 18.2161 3.90955 18.6006L3.58151 19.8267C3.32295 20.793 4.20701 21.677 5.17335 21.4185L6.39939 21.0904C6.78393 20.9876 7.19071 21.0479 7.54976 21.2198C8.5944 21.7199 9.76449 22 11 22Z" stroke="#00382F" stroke-width="1.5"/>
<path d="M19 14.5018C19.0665 14.4741 19.1324 14.4453 19.1977 14.4155C19.5598 14.2501 19.9661 14.1882 20.3506 14.2911L20.8267 14.4185C21.793 14.677 22.677 13.793 22.4185 12.8267L22.2911 12.3506C22.1882 11.9661 22.2501 11.5598 22.4155 11.1977C22.7908 10.376 23 9.46242 23 8.5C23 4.91015 20.0899 2 16.5 2C13.7977 2 11.4806 3.64899 10.5 5.9956" stroke="#00382F" stroke-width="1.5"/>
<path d="M8.5 14C8.5 14.5523 8.05228 15 7.5 15C6.94772 15 6.5 14.5523 6.5 14C6.5 13.4477 6.94772 13 7.5 13C8.05228 13 8.5 13.4477 8.5 14Z" fill="#00382F"/>
<path d="M12 14C12 14.5523 11.5523 15 11 15C10.4477 15 10 14.5523 10 14C10 13.4477 10.4477 13 11 13C11.5523 13 12 13.4477 12 14Z" fill="#00382F"/>
<path d="M15.5 14C15.5 14.5523 15.0523 15 14.5 15C13.9477 15 13.5 14.5523 13.5 14C13.5 13.4477 13.9477 13 14.5 13C15.0523 13 15.5 13.4477 15.5 14Z" fill="#00382F"/>
</svg>
