<svg width="119" height="30" viewBox="0 0 119 30" fill="none" xmlns="http://www.w3.org/2000/svg">
<g clip-path="url(#clip0_104_280)">
<path d="M14 22.5983H5.52504V30.0119H0V11.5852H5.53713V18.7128H14.0121V11.5852H19.5492V30.0119H14.0121V22.5983H14Z" fill="#0F3A30"/>
<path d="M23.4181 11.5733H34.0692C40.4526 11.5733 43.8378 14.6365 43.8378 20.4887V21.0965C43.8378 26.9368 40.4526 30.0119 34.0692 30.0119H23.4181V11.5852V11.5733ZM33.1262 26.1502C36.8015 26.1502 38.1556 24.7676 38.1556 21.0727V20.4887C38.1556 16.8057 36.8015 15.3993 33.1262 15.3993H28.9673V26.1383H33.1262V26.1502Z" fill="#0F3A30"/>
<path d="M46.9448 11.5733H55.5044L60.3282 25.2086H60.4008L65.2246 11.5733H73.7842V30H68.8032V15.5542H68.7065L63.3628 30H57.342L51.9983 15.5542H51.9016V30H46.9206V11.5733H46.9448Z" fill="#0F3A30"/>
<path d="M109.57 0H89.4648C84.2568 0 80.0348 4.16231 80.0348 9.29678C80.0348 14.4313 84.2568 18.5936 89.4648 18.5936H109.57C114.778 18.5936 119 14.4313 119 9.29678C119 4.16231 114.778 0 109.57 0Z" fill="#A5C3AB"/>
<path d="M109.57 0H89.4648C84.2568 0 80.0348 4.16231 80.0348 9.29678C80.0348 14.4313 84.2568 18.5936 89.4648 18.5936H109.57C114.778 18.5936 119 14.4313 119 9.29678C119 4.16231 114.778 0 109.57 0Z" fill="#3ABB6A"/>
<path d="M89.5128 6.84149H86.454V5.41121H94.4333V6.84149H91.3746V13.7426H89.5007V6.84149H89.5128Z" fill="white"/>
<path d="M96.5972 5.41121H99.6197L102.969 13.7426H100.889L100.188 11.8951H96.0411L95.3399 13.7426H93.2605L96.5972 5.41121ZM99.6439 10.4648L98.1447 6.56735H98.0964L96.6093 10.4648H99.6439Z" fill="white"/>
<path d="M106.608 9.53516L103.307 5.39928H105.52L107.938 8.60548H107.962L110.38 5.39928H112.58L109.28 9.53516L112.58 13.7306H110.368L107.962 10.5006H107.938L105.532 13.7306H103.319L106.62 9.53516H106.608Z" fill="white"/>
</g>
<defs>
<clipPath id="clip0_104_280">
<rect width="119" height="30" fill="white"/>
</clipPath>
</defs>
</svg>
