<svg width="119" height="30" viewBox="0 0 119 30" fill="none" xmlns="http://www.w3.org/2000/svg">
<g clip-path="url(#clip0_104_72)">
<path d="M14 22.5981H5.52504V30.0117H0V11.585H5.53713V18.7125H14.0121V11.585H19.5492V30.0117H14.0121V22.5981H14Z" fill="white"/>
<path d="M23.4181 11.5732H34.0692C40.4526 11.5732 43.8378 14.6364 43.8378 20.4886V21.0965C43.8378 26.9368 40.4526 30.0119 34.0692 30.0119H23.4181V11.5852V11.5732ZM33.1262 26.1501C36.8015 26.1501 38.1556 24.7675 38.1556 21.0726V20.4886C38.1556 16.8057 36.8015 15.3992 33.1262 15.3992H28.9673V26.1382H33.1262V26.1501Z" fill="white"/>
<path d="M46.9448 11.5732H55.5044L60.3282 25.2085H60.4008L65.2246 11.5732H73.7842V29.9999H68.8032V15.5542H68.7065L63.3628 29.9999H57.342L51.9983 15.5542H51.9016V29.9999H46.9206V11.5732H46.9448Z" fill="white"/>
<path d="M109.57 0H89.4648C84.2568 0 80.0348 4.16231 80.0348 9.29678C80.0348 14.4313 84.2568 18.5936 89.4648 18.5936H109.57C114.778 18.5936 119 14.4313 119 9.29678C119 4.16231 114.778 0 109.57 0Z" fill="#A5C3AB"/>
<path d="M109.57 0H89.4648C84.2568 0 80.0348 4.16231 80.0348 9.29678C80.0348 14.4313 84.2568 18.5936 89.4648 18.5936H109.57C114.778 18.5936 119 14.4313 119 9.29678C119 4.16231 114.778 0 109.57 0Z" fill="#3ABB6A"/>
<path d="M89.5128 6.84141H86.454V5.41113H94.4333V6.84141H91.3746V13.7425H89.5007V6.84141H89.5128Z" fill="white"/>
<path d="M96.5972 5.41113H99.6197L102.969 13.7425H100.889L100.188 11.895H96.0411L95.3399 13.7425H93.2605L96.5972 5.41113ZM99.6439 10.4648L98.1447 6.56727H98.0964L96.6093 10.4648H99.6439Z" fill="white"/>
<path d="M106.608 9.53529L103.307 5.39941H105.52L107.938 8.60561H107.962L110.38 5.39941H112.58L109.28 9.53529L112.58 13.7308H110.368L107.962 10.5007H107.938L105.532 13.7308H103.319L106.62 9.53529H106.608Z" fill="white"/>
</g>
<defs>
<clipPath id="clip0_104_72">
<rect width="119" height="30" fill="white"/>
</clipPath>
</defs>
</svg>
