<svg width="37" height="37" viewBox="0 0 37 37" fill="none" xmlns="http://www.w3.org/2000/svg">
<rect width="36.4175" height="36.4175" fill="#967F4B"/>
<g clip-path="url(#clip0_104_86)">
<path d="M12.1853 7.48584H24.1653C25.8288 7.48584 27.1769 8.82782 27.1769 10.4838H9.17883C9.17883 8.82782 10.5269 7.48584 12.1853 7.48584Z" fill="#E6E2EF"/>
<path d="M9.17953 16.459H24.1711C25.8346 16.459 27.1827 17.801 27.1827 19.4569H12.186C10.5225 19.4569 9.17444 18.1149 9.17444 16.459H9.17953Z" fill="#E6E2EF"/>
<path d="M6.16736 13.4715C6.16736 11.8207 7.51541 10.4838 9.16867 10.4838V16.4644C7.51032 16.4644 6.16736 15.1224 6.16736 13.4766V13.4715Z" fill="#E6E2EF"/>
<path d="M27.1775 25.4331V19.4525C28.8409 19.4525 30.189 20.7945 30.189 22.4403C30.189 24.0911 28.8409 25.428 27.1877 25.428L27.1775 25.4331Z" fill="#E6E2EF"/>
<path d="M27.1774 13.4771V10.4792C28.8408 10.4792 30.1889 11.8211 30.1889 13.4771H27.1774Z" fill="#E6E2EF"/>
<path d="M6.16736 22.445H9.17884V25.4429C7.51541 25.4429 6.16736 24.1009 6.16736 22.445Z" fill="#E6E2EF"/>
<path d="M9.17953 25.4385H27.1776C27.1776 27.0944 25.8295 28.4364 24.166 28.4364H12.186C10.5225 28.4364 9.17444 27.0944 9.17444 25.4385H9.17953Z" fill="#E6E2EF"/>
</g>
<defs>
<clipPath id="clip0_104_86">
<rect width="24.031" height="20.9501" fill="white" transform="translate(6.16296 7.48584)"/>
</clipPath>
</defs>
</svg>
