<svg width="26" height="24" viewBox="0 0 26 24" fill="none" xmlns="http://www.w3.org/2000/svg">
<rect y="6" width="26" height="12" rx="6" fill="#3ABB6A" fill-opacity="0.5"/>
<path d="M10.7813 3.89076C11.3452 3.41023 11.6271 3.16997 11.9219 3.02907C12.6037 2.7032 13.3963 2.7032 14.0781 3.02907C14.3729 3.16997 14.6548 3.41023 15.2187 3.89076C15.4431 4.08201 15.5553 4.17764 15.6752 4.25796C15.9499 4.44209 16.2584 4.56988 16.5828 4.63393C16.7244 4.66188 16.8713 4.6736 17.1653 4.69706C17.9038 4.75599 18.273 4.78546 18.5811 4.89427C19.2936 5.14594 19.8541 5.7064 20.1057 6.41893C20.2146 6.72699 20.244 7.09625 20.3029 7.83475C20.3264 8.12868 20.3381 8.27564 20.3661 8.41718C20.4301 8.74163 20.5579 9.05014 20.742 9.32485C20.8224 9.44469 20.918 9.55691 21.1092 9.78133C21.5898 10.3452 21.83 10.6271 21.9709 10.9219C22.2968 11.6037 22.2968 12.3963 21.9709 13.0781C21.83 13.3729 21.5898 13.6548 21.1092 14.2187C20.918 14.4431 20.8224 14.5553 20.742 14.6752C20.5579 14.9499 20.4301 15.2584 20.3661 15.5828C20.3381 15.7244 20.3264 15.8713 20.3029 16.1653C20.244 16.9038 20.2146 17.273 20.1057 17.5811C19.8541 18.2936 19.2936 18.8541 18.5811 19.1058C18.273 19.2146 17.9038 19.244 17.1653 19.303C16.8713 19.3264 16.7244 19.3381 16.5828 19.3661C16.2584 19.4301 15.9499 19.5579 15.6752 19.7421C15.5553 19.8224 15.4431 19.918 15.2187 20.1093C14.6548 20.5898 14.3729 20.8301 14.0781 20.971C13.3963 21.2968 12.6037 21.2968 11.9219 20.971C11.6271 20.8301 11.3452 20.5898 10.7813 20.1093C10.5569 19.918 10.4447 19.8224 10.3248 19.7421C10.0501 19.5579 9.74161 19.4301 9.41716 19.3661C9.27563 19.3381 9.12866 19.3264 8.83474 19.303C8.09623 19.244 7.72698 19.2146 7.41891 19.1058C6.70639 18.8541 6.14593 18.2936 5.89426 17.5811C5.78544 17.273 5.75598 16.9038 5.69704 16.1653C5.67359 15.8713 5.66186 15.7244 5.63392 15.5828C5.56986 15.2584 5.44207 14.9499 5.25795 14.6752C5.17762 14.5553 5.082 14.4431 4.89074 14.2187C4.41022 13.6548 4.16995 13.3729 4.02906 13.0781C3.70318 12.3963 3.70318 11.6037 4.02906 10.9219C4.16995 10.6271 4.41022 10.3452 4.89074 9.78133C5.082 9.55691 5.17762 9.4447 5.25795 9.32485C5.44207 9.05014 5.56986 8.74163 5.63392 8.41718C5.66186 8.27564 5.67359 8.12868 5.69704 7.83475C5.75598 7.09625 5.78544 6.72699 5.89426 6.41893C6.14593 5.7064 6.70639 5.14594 7.41891 4.89427C7.72698 4.78546 8.09623 4.75599 8.83474 4.69706C9.12866 4.6736 9.27562 4.66188 9.41716 4.63393C9.74161 4.56988 10.0501 4.44209 10.3248 4.25796C10.4447 4.17764 10.5569 4.08201 10.7813 3.89076Z" stroke="#1C274C" stroke-width="1.5"/>
<path d="M9.5 12.5L11.5 14.5L16.5 9.5" stroke="#1C274C" stroke-width="1.5" stroke-linecap="round" stroke-linejoin="round"/>
</svg>
